ffmpeg started on 2026-01-13 at 12:29:09
Report written to "D:\Convert\FFMetrics\reports\ssim_report-6.txt"
Log level: 32
Command line:
ffmpeg -hide_banner -nostdin -r 24000/1001 -i "F:\\Convert\\files\\[DC] Make Heroine ga Oosugiru - 07_Telegram_HEVC(95).mkv" -r 24000/1001 -i "F:\\Convert\\files\\[DC] Make Heroine ga Oosugiru - 07_Telegram.mp4" -lavfi "[0:v]settb=AVTB,setpts=PTS-STARTPTS,format=pix_fmts=yuv420p10le,fps=24000/1001,scale=1920:1080:flags=lanczos:param0=3:out_range=limited:out_color_matrix=bt709:out_chroma_loc=left,setsar=1/1,setdar=(1920/1080)*(1/1),colorspace=format=yuv420p10:range=tv:primaries=bt709:trc=bt709:space=bt709:fast=0[main];[1:v]settb=AVTB,setpts=PTS-STARTPTS,format=pix_fmts=yuv420p,fps=24000/1001,scale=1920:1080:flags=lanczos:param0=3:out_range=limited:out_color_matrix=bt709:out_chroma_loc=left,setsar=1.000,setdar=1.778,colorspace=format=yuv420p:range=tv:primaries=bt709:trc=bt709:space=bt709:fast=0[ref];[main][ref]ssim=eof_action=endall:stats_file='D\\:/Convert/FFMetrics/logs/ssim_logfile-6.txt'" -f null -
Input #0, matroska,webm, from 'F:\Convert\files\[DC] Make Heroine ga Oosugiru - 07_Telegram_HEVC(95).mkv':
  Metadata:
    COMPATIBLE_BRANDS: isomiso2avc1mp41
    MAJOR_BRAND     : isom
    MINOR_VERSION   : 512
    ENCODER         : Lavf61.7.100
  Duration: 00:24:06.79, start: -0.021000, bitrate: 1016 kb/s
  Stream #0:0: Video: hevc (Main 10), yuv420p10le(tv, bt709, progressive), 1920x1080 [SAR 1:1 DAR 16:9], 23.98 fps, 23.98 tbr, 1k tbn (default)
      Metadata:
        HANDLER_NAME    : VideoHandler
        VENDOR_ID       : [0][0][0][0]
        ENCODER         : Lavc61.19.100 libx265
        BPS             : 819047
        DURATION        : 00:24:06.569708333
        NUMBER_OF_FRAMES: 34683
        NUMBER_OF_BYTES : 148101113
        _STATISTICS_WRITING_APP: mkvpropedit v94.0 ('Initiate') 64-bit
        _STATISTICS_WRITING_DATE_UTC: 2026-01-12 09:59:14
        _STATISTICS_TAGS: BPS DURATION NUMBER_OF_FRAMES NUMBER_OF_BYTES
  Stream #0:1: Audio: aac (LC), 48000 Hz, stereo, fltp (default)
      Metadata:
        HANDLER_NAME    : SoundHandler
        VENDOR_ID       : [0][0][0][0]
        ENCODER         : Lavc61.19.100 aac
        BPS             : 193194
        DURATION        : 00:24:06.784000000
        NUMBER_OF_FRAMES: 67819
        NUMBER_OF_BYTES : 34938755
        _STATISTICS_WRITING_APP: mkvpropedit v94.0 ('Initiate') 64-bit
        _STATISTICS_WRITING_DATE_UTC: 2026-01-12 09:59:14
        _STATISTICS_TAGS: BPS DURATION NUMBER_OF_FRAMES NUMBER_OF_BYTES
Input #1, mov,mp4,m4a,3gp,3g2,mj2, from 'F:\Convert\files\[DC] Make Heroine ga Oosugiru - 07_Telegram.mp4':
  Metadata:
    major_brand     : isom
    minor_version   : 512
    compatible_brands: isomiso2avc1mp41
    encoder         : Lavf60.16.100
  Duration: 00:24:06.74, start: 0.000000, bitrate: 3764 kb/s
  Stream #1:0[0x1](und): Video: h264 (High) (avc1 / 0x31637661), yuv420p(tv, bt709, progressive), 1920x1080 [SAR 1:1 DAR 16:9], 3616 kb/s, 23.98 fps, 23.98 tbr, 24k tbn (default)
      Metadata:
        handler_name    : VideoHandler
        vendor_id       : [0][0][0][0]
        encoder         : Lavc60.31.102 h264_qsv
  Stream #1:1[0x2](und): Audio: aac (HE-AACv2) (mp4a / 0x6134706D), 48000 Hz, stereo, fltp, 144 kb/s (default)
      Metadata:
        handler_name    : SoundHandler
        vendor_id       : [0][0][0][0]
Stream mapping:
  Stream #0:0 (hevc) -> settb:default
  Stream #1:0 (h264) -> settb:default
  ssim:default -> Stream #0:0 (wrapped_avframe)
  Stream #0:1 -> #0:1 (aac (native) -> pcm_s16le (native))
Output #0, null, to 'pipe:':
  Metadata:
    COMPATIBLE_BRANDS: isomiso2avc1mp41
    MAJOR_BRAND     : isom
    MINOR_VERSION   : 512
    encoder         : Lavf61.7.100
  Stream #0:0: Video: wrapped_avframe, yuv420p10le(tv, bt709, progressive), 1920x1080 [SAR 1:1 DAR 16:9], q=2-31, 200 kb/s, 23.98 fps, 23.98 tbn
      Metadata:
        encoder         : Lavc61.19.100 wrapped_avframe
  Stream #0:1: Audio: pcm_s16le, 48000 Hz, stereo, s16, 1536 kb/s (default)
      Metadata:
        HANDLER_NAME    : SoundHandler
        VENDOR_ID       : [0][0][0][0]
        _STATISTICS_TAGS: BPS DURATION NUMBER_OF_FRAMES NUMBER_OF_BYTES
        BPS             : 193194
        DURATION        : 00:24:06.784000000
        NUMBER_OF_FRAMES: 67819
        NUMBER_OF_BYTES : 34938755
        _STATISTICS_WRITING_APP: mkvpropedit v94.0 ('Initiate') 64-bit
        _STATISTICS_WRITING_DATE_UTC: 2026-01-12 09:59:14
        encoder         : Lavc61.19.100 pcm_s16le
frame=  131 fps=0.0 q=-0.0 size=N/A time=00:00:05.46 bitrate=N/A speed=10.7x    frame=  319 fps=308 q=-0.0 size=N/A time=00:00:13.30 bitrate=N/A speed=12.9x    frame=  508 fps=329 q=-0.0 size=N/A time=00:00:21.18 bitrate=N/A speed=13.7x    frame=  699 fps=340 q=-0.0 size=N/A time=00:00:29.15 bitrate=N/A speed=14.2x    frame=  889 fps=344 q=-0.0 size=N/A time=00:00:37.07 bitrate=N/A speed=14.4x    frame= 1032 fps=334 q=-0.0 size=N/A time=00:00:43.04 bitrate=N/A speed=13.9x    frame= 1189 fps=330 q=-0.0 size=N/A time=00:00:49.59 bitrate=N/A speed=13.8x    frame= 1354 fps=328 q=-0.0 size=N/A time=00:00:56.47 bitrate=N/A speed=13.7x    frame= 1508 fps=325 q=-0.0 size=N/A time=00:01:02.89 bitrate=N/A speed=13.6x    frame= 1656 fps=321 q=-0.0 size=N/A time=00:01:09.06 bitrate=N/A speed=13.4x    frame= 1815 fps=320 q=-0.0 size=N/A time=00:01:15.70 bitrate=N/A speed=13.3x    frame= 1975 fps=319 q=-0.0 size=N/A time=00:01:22.37 bitrate=N/A speed=13.3x    frame= 2088 fps=312 q=-0.0 size=N/A time=00:01:27.08 bitrate=N/A speed=  13x    frame= 2237 fps=310 q=-0.0 size=N/A time=00:01:33.30 bitrate=N/A speed=12.9x    frame= 2388 fps=309 q=-0.0 size=N/A time=00:01:39.59 bitrate=N/A speed=12.9x    frame= 2515 fps=305 q=-0.0 size=N/A time=00:01:44.89 bitrate=N/A speed=12.7x    frame= 2665 fps=304 q=-0.0 size=N/A time=00:01:51.15 bitrate=N/A speed=12.7x    frame= 2838 fps=306 q=-0.0 size=N/A time=00:01:58.36 bitrate=N/A speed=12.8x    frame= 3009 fps=307 q=-0.0 size=N/A time=00:02:05.50 bitrate=N/A speed=12.8x    frame= 3190 fps=309 q=-0.0 size=N/A time=00:02:13.04 bitrate=N/A speed=12.9x    frame= 3373 fps=312 q=-0.0 size=N/A time=00:02:20.68 bitrate=N/A speed=  13x    frame= 3566 fps=314 q=-0.0 size=N/A time=00:02:28.73 bitrate=N/A speed=13.1x    frame= 3747 fps=316 q=-0.0 size=N/A time=00:02:36.28 bitrate=N/A speed=13.2x    frame= 3938 fps=318 q=-0.0 size=N/A time=00:02:44.24 bitrate=N/A speed=13.3x    frame= 4123 fps=320 q=-0.0 size=N/A time=00:02:51.96 bitrate=N/A speed=13.3x    frame= 4310 fps=322 q=-0.0 size=N/A time=00:02:59.76 bitrate=N/A speed=13.4x    frame= 4492 fps=323 q=-0.0 size=N/A time=00:03:07.35 bitrate=N/A speed=13.5x    frame= 4685 fps=324 q=-0.0 size=N/A time=00:03:15.40 bitrate=N/A speed=13.5x    frame= 4870 fps=326 q=-0.0 size=N/A time=00:03:23.11 bitrate=N/A speed=13.6x    frame= 5051 fps=327 q=-0.0 size=N/A time=00:03:30.66 bitrate=N/A speed=13.6x    frame= 5228 fps=327 q=-0.0 size=N/A time=00:03:38.05 bitrate=N/A speed=13.6x    frame= 5412 fps=328 q=-0.0 size=N/A time=00:03:45.72 bitrate=N/A speed=13.7x    frame= 5588 fps=328 q=-0.0 size=N/A time=00:03:53.06 bitrate=N/A speed=13.7x    frame= 5774 fps=329 q=-0.0 size=N/A time=00:04:00.82 bitrate=N/A speed=13.7x    frame= 5961 fps=330 q=-0.0 size=N/A time=00:04:08.62 bitrate=N/A speed=13.8x    frame= 6142 fps=331 q=-0.0 size=N/A time=00:04:16.17 bitrate=N/A speed=13.8x    frame= 6323 fps=331 q=-0.0 size=N/A time=00:04:23.72 bitrate=N/A speed=13.8x    frame= 6509 fps=332 q=-0.0 size=N/A time=00:04:31.47 bitrate=N/A speed=13.9x    frame= 6690 fps=333 q=-0.0 size=N/A time=00:04:39.02 bitrate=N/A speed=13.9x    frame= 6875 fps=333 q=-0.0 size=N/A time=00:04:46.74 bitrate=N/A speed=13.9x    frame= 7055 fps=334 q=-0.0 size=N/A time=00:04:54.25 bitrate=N/A speed=13.9x    frame= 7232 fps=334 q=-0.0 size=N/A time=00:05:01.63 bitrate=N/A speed=13.9x    frame= 7419 fps=335 q=-0.0 size=N/A time=00:05:09.43 bitrate=N/A speed=  14x    frame= 7598 fps=335 q=-0.0 size=N/A time=00:05:16.89 bitrate=N/A speed=  14x    frame= 7774 fps=335 q=-0.0 size=N/A time=00:05:24.24 bitrate=N/A speed=  14x    frame= 7955 fps=335 q=-0.0 size=N/A time=00:05:31.78 bitrate=N/A speed=  14x    frame= 8133 fps=336 q=-0.0 size=N/A time=00:05:39.21 bitrate=N/A speed=  14x    frame= 8312 fps=336 q=-0.0 size=N/A time=00:05:46.67 bitrate=N/A speed=  14x    frame= 8502 fps=336 q=-0.0 size=N/A time=00:05:54.60 bitrate=N/A speed=  14x    frame= 8683 fps=337 q=-0.0 size=N/A time=00:06:02.15 bitrate=N/A speed=  14x    frame= 8868 fps=337 q=-0.0 size=N/A time=00:06:09.86 bitrate=N/A speed=14.1x    frame= 9046 fps=337 q=-0.0 size=N/A time=00:06:17.29 bitrate=N/A speed=14.1x    frame= 9234 fps=338 q=-0.0 size=N/A time=00:06:25.13 bitrate=N/A speed=14.1x    frame= 9420 fps=338 q=-0.0 size=N/A time=00:06:32.89 bitrate=N/A speed=14.1x    frame= 9606 fps=339 q=-0.0 size=N/A time=00:06:40.65 bitrate=N/A speed=14.1x    frame= 9792 fps=339 q=-0.0 size=N/A time=00:06:48.40 bitrate=N/A speed=14.1x    frame= 9968 fps=339 q=-0.0 size=N/A time=00:06:55.74 bitrate=N/A speed=14.1x    frame=10142 fps=339 q=-0.0 size=N/A time=00:07:03.00 bitrate=N/A speed=14.1x    frame=10319 fps=339 q=-0.0 size=N/A time=00:07:10.38 bitrate=N/A speed=14.1x    frame=10497 fps=339 q=-0.0 size=N/A time=00:07:17.81 bitrate=N/A speed=14.1x    frame=10648 fps=339 q=-0.0 size=N/A time=00:07:24.11 bitrate=N/A speed=14.1x    frame=10827 fps=339 q=-0.0 size=N/A time=00:07:31.57 bitrate=N/A speed=14.1x    frame=11002 fps=339 q=-0.0 size=N/A time=00:07:38.87 bitrate=N/A speed=14.1x    frame=11183 fps=339 q=-0.0 size=N/A time=00:07:46.42 bitrate=N/A speed=14.1x    frame=11364 fps=339 q=-0.0 size=N/A time=00:07:53.97 bitrate=N/A speed=14.1x    frame=11544 fps=339 q=-0.0 size=N/A time=00:08:01.48 bitrate=N/A speed=14.1x    frame=11726 fps=339 q=-0.0 size=N/A time=00:08:09.07 bitrate=N/A speed=14.2x    frame=11903 fps=339 q=-0.0 size=N/A time=00:08:16.45 bitrate=N/A speed=14.2x    frame=12088 fps=340 q=-0.0 size=N/A time=00:08:24.17 bitrate=N/A speed=14.2x    frame=12266 fps=340 q=-0.0 size=N/A time=00:08:31.59 bitrate=N/A speed=14.2x    frame=12448 fps=340 q=-0.0 size=N/A time=00:08:39.18 bitrate=N/A speed=14.2x    frame=12629 fps=340 q=-0.0 size=N/A time=00:08:46.73 bitrate=N/A speed=14.2x    frame=12823 fps=341 q=-0.0 size=N/A time=00:08:54.82 bitrate=N/A speed=14.2x    frame=13006 fps=341 q=-0.0 size=N/A time=00:09:02.45 bitrate=N/A speed=14.2x    frame=13189 fps=341 q=-0.0 size=N/A time=00:09:10.09 bitrate=N/A speed=14.2x    frame=13366 fps=341 q=-0.0 size=N/A time=00:09:17.47 bitrate=N/A speed=14.2x    frame=13553 fps=341 q=-0.0 size=N/A time=00:09:25.27 bitrate=N/A speed=14.2x    frame=13734 fps=341 q=-0.0 size=N/A time=00:09:32.82 bitrate=N/A speed=14.2x    frame=13902 fps=341 q=-0.0 size=N/A time=00:09:39.82 bitrate=N/A speed=14.2x    frame=14086 fps=341 q=-0.0 size=N/A time=00:09:47.50 bitrate=N/A speed=14.2x    frame=14251 fps=341 q=-0.0 size=N/A time=00:09:54.38 bitrate=N/A speed=14.2x    frame=14426 fps=341 q=-0.0 size=N/A time=00:10:01.68 bitrate=N/A speed=14.2x    frame=14611 fps=341 q=-0.0 size=N/A time=00:10:09.40 bitrate=N/A speed=14.2x    frame=14789 fps=341 q=-0.0 size=N/A time=00:10:16.82 bitrate=N/A speed=14.2x    frame=14971 fps=342 q=-0.0 size=N/A time=00:10:24.41 bitrate=N/A speed=14.2x    frame=15124 fps=341 q=-0.0 size=N/A time=00:10:30.79 bitrate=N/A speed=14.2x    frame=15288 fps=341 q=-0.0 size=N/A time=00:10:37.63 bitrate=N/A speed=14.2x    frame=15467 fps=341 q=-0.0 size=N/A time=00:10:45.10 bitrate=N/A speed=14.2x    frame=15641 fps=341 q=-0.0 size=N/A time=00:10:52.36 bitrate=N/A speed=14.2x    frame=15827 fps=341 q=-0.0 size=N/A time=00:11:00.11 bitrate=N/A speed=14.2x    frame=16012 fps=341 q=-0.0 size=N/A time=00:11:07.83 bitrate=N/A speed=14.2x    frame=16194 fps=341 q=-0.0 size=N/A time=00:11:15.42 bitrate=N/A speed=14.2x    frame=16384 fps=342 q=-0.0 size=N/A time=00:11:23.34 bitrate=N/A speed=14.2x    frame=16563 fps=342 q=-0.0 size=N/A time=00:11:30.81 bitrate=N/A speed=14.3x    frame=16752 fps=342 q=-0.0 size=N/A time=00:11:38.69 bitrate=N/A speed=14.3x    frame=16931 fps=342 q=-0.0 size=N/A time=00:11:46.16 bitrate=N/A speed=14.3x    frame=17116 fps=342 q=-0.0 size=N/A time=00:11:53.87 bitrate=N/A speed=14.3x    frame=17300 fps=342 q=-0.0 size=N/A time=00:12:01.55 bitrate=N/A speed=14.3x    frame=17486 fps=343 q=-0.0 size=N/A time=00:12:09.31 bitrate=N/A speed=14.3x    frame=17675 fps=343 q=-0.0 size=N/A time=00:12:17.19 bitrate=N/A speed=14.3x    frame=17854 fps=343 q=-0.0 size=N/A time=00:12:24.66 bitrate=N/A speed=14.3x    frame=18041 fps=343 q=-0.0 size=N/A time=00:12:32.46 bitrate=N/A speed=14.3x    frame=18220 fps=343 q=-0.0 size=N/A time=00:12:39.92 bitrate=N/A speed=14.3x    frame=18397 fps=343 q=-0.0 size=N/A time=00:12:47.30 bitrate=N/A speed=14.3x    frame=18580 fps=343 q=-0.0 size=N/A time=00:12:54.94 bitrate=N/A speed=14.3x    frame=18772 fps=343 q=-0.0 size=N/A time=00:13:02.94 bitrate=N/A speed=14.3x    frame=18956 fps=344 q=-0.0 size=N/A time=00:13:10.62 bitrate=N/A speed=14.3x    frame=19146 fps=344 q=-0.0 size=N/A time=00:13:18.54 bitrate=N/A speed=14.3x    frame=19334 fps=344 q=-0.0 size=N/A time=00:13:26.38 bitrate=N/A speed=14.3x    frame=19518 fps=344 q=-0.0 size=N/A time=00:13:34.06 bitrate=N/A speed=14.4x    frame=19704 fps=344 q=-0.0 size=N/A time=00:13:41.82 bitrate=N/A speed=14.4x    frame=19881 fps=344 q=-0.0 size=N/A time=00:13:49.20 bitrate=N/A speed=14.4x    frame=20067 fps=344 q=-0.0 size=N/A time=00:13:56.96 bitrate=N/A speed=14.4x    frame=20250 fps=344 q=-0.0 size=N/A time=00:14:04.59 bitrate=N/A speed=14.4x    frame=20429 fps=345 q=-0.0 size=N/A time=00:14:12.05 bitrate=N/A speed=14.4x    frame=20600 fps=344 q=-0.0 size=N/A time=00:14:19.19 bitrate=N/A speed=14.4x    frame=20767 fps=344 q=-0.0 size=N/A time=00:14:26.15 bitrate=N/A speed=14.4x    frame=20952 fps=344 q=-0.0 size=N/A time=00:14:33.87 bitrate=N/A speed=14.4x    frame=21129 fps=344 q=-0.0 size=N/A time=00:14:41.25 bitrate=N/A speed=14.4x    frame=21297 fps=344 q=-0.0 size=N/A time=00:14:48.26 bitrate=N/A speed=14.4x    frame=21476 fps=344 q=-0.0 size=N/A time=00:14:55.72 bitrate=N/A speed=14.4x    frame=21662 fps=344 q=-0.0 size=N/A time=00:15:03.48 bitrate=N/A speed=14.4x    frame=21840 fps=344 q=-0.0 size=N/A time=00:15:10.91 bitrate=N/A speed=14.4x    frame=22028 fps=345 q=-0.0 size=N/A time=00:15:18.75 bitrate=N/A speed=14.4x    frame=22221 fps=345 q=-0.0 size=N/A time=00:15:26.80 bitrate=N/A speed=14.4x    frame=22408 fps=345 q=-0.0 size=N/A time=00:15:34.60 bitrate=N/A speed=14.4x    frame=22602 fps=345 q=-0.0 size=N/A time=00:15:42.69 bitrate=N/A speed=14.4x    frame=22784 fps=345 q=-0.0 size=N/A time=00:15:50.28 bitrate=N/A speed=14.4x    frame=22959 fps=345 q=-0.0 size=N/A time=00:15:57.58 bitrate=N/A speed=14.4x    frame=23159 fps=345 q=-0.0 size=N/A time=00:16:05.92 bitrate=N/A speed=14.4x    frame=23348 fps=346 q=-0.0 size=N/A time=00:16:13.80 bitrate=N/A speed=14.4x    frame=23536 fps=346 q=-0.0 size=N/A time=00:16:21.64 bitrate=N/A speed=14.4x    frame=23723 fps=346 q=-0.0 size=N/A time=00:16:29.44 bitrate=N/A speed=14.4x    frame=23910 fps=346 q=-0.0 size=N/A time=00:16:37.24 bitrate=N/A speed=14.4x    frame=24100 fps=346 q=-0.0 size=N/A time=00:16:45.17 bitrate=N/A speed=14.4x    frame=24284 fps=346 q=-0.0 size=N/A time=00:16:52.84 bitrate=N/A speed=14.4x    frame=24476 fps=346 q=-0.0 size=N/A time=00:17:00.85 bitrate=N/A speed=14.4x    frame=24676 fps=347 q=-0.0 size=N/A time=00:17:09.19 bitrate=N/A speed=14.5x    frame=24863 fps=347 q=-0.0 size=N/A time=00:17:16.99 bitrate=N/A speed=14.5x    frame=25050 fps=347 q=-0.0 size=N/A time=00:17:24.79 bitrate=N/A speed=14.5x    frame=25243 fps=347 q=-0.0 size=N/A time=00:17:32.84 bitrate=N/A speed=14.5x    frame=25426 fps=347 q=-0.0 size=N/A time=00:17:40.47 bitrate=N/A speed=14.5x    frame=25613 fps=347 q=-0.0 size=N/A time=00:17:48.27 bitrate=N/A speed=14.5x    frame=25795 fps=347 q=-0.0 size=N/A time=00:17:55.86 bitrate=N/A speed=14.5x    frame=25986 fps=347 q=-0.0 size=N/A time=00:18:03.83 bitrate=N/A speed=14.5x    frame=26162 fps=347 q=-0.0 size=N/A time=00:18:11.17 bitrate=N/A speed=14.5x    frame=26342 fps=347 q=-0.0 size=N/A time=00:18:18.68 bitrate=N/A speed=14.5x    frame=26528 fps=348 q=-0.0 size=N/A time=00:18:26.43 bitrate=N/A speed=14.5x    frame=26718 fps=348 q=-0.0 size=N/A time=00:18:34.36 bitrate=N/A speed=14.5x    frame=26900 fps=348 q=-0.0 size=N/A time=00:18:41.95 bitrate=N/A speed=14.5x    frame=27075 fps=348 q=-0.0 size=N/A time=00:18:49.25 bitrate=N/A speed=14.5x    frame=27246 fps=348 q=-0.0 size=N/A time=00:18:56.38 bitrate=N/A speed=14.5x    frame=27429 fps=348 q=-0.0 size=N/A time=00:19:04.01 bitrate=N/A speed=14.5x    frame=27622 fps=348 q=-0.0 size=N/A time=00:19:12.06 bitrate=N/A speed=14.5x    frame=27805 fps=348 q=-0.0 size=N/A time=00:19:19.70 bitrate=N/A speed=14.5x    frame=27986 fps=348 q=-0.0 size=N/A time=00:19:27.24 bitrate=N/A speed=14.5x    frame=28172 fps=348 q=-0.0 size=N/A time=00:19:35.00 bitrate=N/A speed=14.5x    frame=28368 fps=348 q=-0.0 size=N/A time=00:19:43.18 bitrate=N/A speed=14.5x    frame=28552 fps=348 q=-0.0 size=N/A time=00:19:50.85 bitrate=N/A speed=14.5x    frame=28734 fps=348 q=-0.0 size=N/A time=00:19:58.44 bitrate=N/A speed=14.5x    frame=28904 fps=348 q=-0.0 size=N/A time=00:20:05.53 bitrate=N/A speed=14.5x    frame=29075 fps=348 q=-0.0 size=N/A time=00:20:12.66 bitrate=N/A speed=14.5x    frame=29254 fps=348 q=-0.0 size=N/A time=00:20:20.13 bitrate=N/A speed=14.5x    frame=29427 fps=348 q=-0.0 size=N/A time=00:20:27.35 bitrate=N/A speed=14.5x    frame=29588 fps=348 q=-0.0 size=N/A time=00:20:34.06 bitrate=N/A speed=14.5x    frame=29758 fps=348 q=-0.0 size=N/A time=00:20:41.15 bitrate=N/A speed=14.5x    frame=29931 fps=348 q=-0.0 size=N/A time=00:20:48.37 bitrate=N/A speed=14.5x    frame=30096 fps=347 q=-0.0 size=N/A time=00:20:55.25 bitrate=N/A speed=14.5x    frame=30282 fps=347 q=-0.0 size=N/A time=00:21:03.01 bitrate=N/A speed=14.5x    frame=30470 fps=348 q=-0.0 size=N/A time=00:21:10.85 bitrate=N/A speed=14.5x    frame=30650 fps=348 q=-0.0 size=N/A time=00:21:18.36 bitrate=N/A speed=14.5x    frame=30838 fps=348 q=-0.0 size=N/A time=00:21:26.20 bitrate=N/A speed=14.5x    frame=31023 fps=348 q=-0.0 size=N/A time=00:21:33.91 bitrate=N/A speed=14.5x    frame=31213 fps=348 q=-0.0 size=N/A time=00:21:41.84 bitrate=N/A speed=14.5x    frame=31385 fps=348 q=-0.0 size=N/A time=00:21:49.01 bitrate=N/A speed=14.5x    frame=31562 fps=348 q=-0.0 size=N/A time=00:21:56.39 bitrate=N/A speed=14.5x    frame=31725 fps=348 q=-0.0 size=N/A time=00:22:03.19 bitrate=N/A speed=14.5x    frame=31902 fps=347 q=-0.0 size=N/A time=00:22:10.57 bitrate=N/A speed=14.5x    frame=32074 fps=347 q=-0.0 size=N/A time=00:22:17.75 bitrate=N/A speed=14.5x    frame=32256 fps=347 q=-0.0 size=N/A time=00:22:25.34 bitrate=N/A speed=14.5x    frame=32441 fps=347 q=-0.0 size=N/A time=00:22:33.06 bitrate=N/A speed=14.5x    frame=32617 fps=347 q=-0.0 size=N/A time=00:22:40.40 bitrate=N/A speed=14.5x    frame=32769 fps=347 q=-0.0 size=N/A time=00:22:46.74 bitrate=N/A speed=14.5x    frame=32923 fps=347 q=-0.0 size=N/A time=00:22:53.16 bitrate=N/A speed=14.5x    frame=33110 fps=347 q=-0.0 size=N/A time=00:23:00.96 bitrate=N/A speed=14.5x    frame=33293 fps=347 q=-0.0 size=N/A time=00:23:08.59 bitrate=N/A speed=14.5x    frame=33470 fps=347 q=-0.0 size=N/A time=00:23:15.97 bitrate=N/A speed=14.5x    frame=33624 fps=347 q=-0.0 size=N/A time=00:23:22.40 bitrate=N/A speed=14.5x    frame=33761 fps=346 q=-0.0 size=N/A time=00:23:28.11 bitrate=N/A speed=14.4x    frame=33886 fps=346 q=-0.0 size=N/A time=00:23:33.32 bitrate=N/A speed=14.4x    frame=34041 fps=345 q=-0.0 size=N/A time=00:23:39.79 bitrate=N/A speed=14.4x    frame=34191 fps=345 q=-0.0 size=N/A time=00:23:46.04 bitrate=N/A speed=14.4x    frame=34340 fps=345 q=-0.0 size=N/A time=00:23:52.26 bitrate=N/A speed=14.4x    frame=34476 fps=344 q=-0.0 size=N/A time=00:23:57.93 bitrate=N/A speed=14.4x    frame=34657 fps=345 q=-0.0 size=N/A time=00:24:05.48 bitrate=N/A speed=14.4x    [Parsed_ssim_16 @ 0000027fc72a5b40] SSIM Y:0.994470 (22.572978) U:0.994282 (22.427406) V:0.993928 (22.166418) All:0.994348 (22.478311)
[out#0/null @ 0000027fb9df8a00] video:14903KiB audio:271276KiB subtitle:0KiB other streams:0KiB global headers:0KiB muxing overhead: unknown
frame=34683 fps=345 q=-0.0 Lsize=N/A time=00:24:06.57 bitrate=N/A speed=14.4x    
